HIERARCHY
ROOT SpineBase
{
  OFFSET 0.000000 0.000000 0.000000
  CHANNELS 6 Xposition Yposition Zposition Zrotation Xrotation Yrotation
  JOINT SpineMid
  {
    OFFSET 0.000000 28.559290 0.000000
    CHANNELS 3 Zrotation Xrotation Yrotation
    JOINT SpineShoulder
    {
      OFFSET 0.207401 21.356314 -0.706730
      CHANNELS 3 Zrotation Xrotation Yrotation
      JOINT Neck
      {
        OFFSET 0.125928 7.114750 -0.531857
        CHANNELS 3 Zrotation Xrotation Yrotation
        JOINT Head
        {
          OFFSET -7.005890 11.329063 -2.163650
          CHANNELS 3 Zrotation Xrotation Yrotation
          End Site
          {
            OFFSET 0 0 0
          }
        }
      }
      JOINT ShoulderLeft
      {
        OFFSET -13.636235 -5.475384 8.163412
        CHANNELS 3 Zrotation Xrotation Yrotation
        JOINT ElbowLeft
        {
          OFFSET -2.839911 -25.453578 6.004998
          CHANNELS 3 Zrotation Xrotation Yrotation
          JOINT WristLeft
          {
            OFFSET -0.282849 -21.593367 -3.890153
            CHANNELS 3 Zrotation Xrotation Yrotation
            JOINT HandLeft
            {
              OFFSET -0.395188 -2.430665 0.654307
              CHANNELS 3 Zrotation Xrotation Yrotation
              JOINT HandTipLeft
              {
                OFFSET 0.817912 -3.842250 -1.120704
                CHANNELS 3 Zrotation Xrotation Yrotation
                End Site
                {
                  OFFSET 0 0 0
                }
              }
              JOINT ThumbLeft
              {
                OFFSET -1.212573 0.241123 -1.168312
                CHANNELS 3 Zrotation Xrotation Yrotation
                End Site
                {
                  OFFSET 0 0 0
                }
              }
            }
          }
        }
      }
      JOINT ShoulderRight
      {
        OFFSET 12.392753 -1.527624 -8.878142
        CHANNELS 3 Zrotation Xrotation Yrotation
        JOINT ElbowRight
        {
          OFFSET 7.404658 -22.052468 -2.445255
          CHANNELS 3 Zrotation Xrotation Yrotation
          JOINT WristRight
          {
            OFFSET -3.059896 -21.293131 -3.508986
            CHANNELS 3 Zrotation Xrotation Yrotation
            JOINT HandRight
            {
              OFFSET -2.311543 -5.935051 -0.078347
              CHANNELS 3 Zrotation Xrotation Yrotation
              JOINT HandTipRight
              {
                OFFSET -0.884142 -6.309552 -0.381479
                CHANNELS 3 Zrotation Xrotation Yrotation
                End Site
                {
                  OFFSET 0 0 0
                }
              }
              JOINT ThumbRight
              {
                OFFSET 2.852043 -0.577693 -0.628064
                CHANNELS 3 Zrotation Xrotation Yrotation
                End Site
                {
                  OFFSET 0 0 0
                }
              }
            }
          }
        }
      }
    }
  }
  JOINT HipLeft
  {
    OFFSET -5.062684 -0.285549 -0.035645
    CHANNELS 3 Zrotation Xrotation Yrotation
    JOINT KneeLeft
    {
      OFFSET -0.259501 -27.297930 9.779890
      CHANNELS 3 Zrotation Xrotation Yrotation
      JOINT AnkleLeft
      {
        OFFSET 4.382220 -32.415609 10.620938
        CHANNELS 3 Zrotation Xrotation Yrotation
        JOINT FootLeft
        {
          OFFSET -3.535754 -6.548759 -1.257669
          CHANNELS 3 Zrotation Xrotation Yrotation
          End Site
          {
            OFFSET 0 0 0
          }
        }
      }
    }
  }
  JOINT HipRight
  {
    OFFSET 6.312310 2.578235 -6.164506
    CHANNELS 3 Zrotation Xrotation Yrotation
    JOINT KneeRight
    {
      OFFSET 7.494272 -25.440921 -0.833259
      CHANNELS 3 Zrotation Xrotation Yrotation
      JOINT AnkleRight
      {
        OFFSET 7.701300 -34.627691 3.580935
        CHANNELS 3 Zrotation Xrotation Yrotation
        JOINT FootRight
        {
          OFFSET -1.203622 -7.227542 -4.865711
          CHANNELS 3 Zrotation Xrotation Yrotation
          End Site
          {
            OFFSET 0 0 0
          }
        }
      }
    }
  }
}
MOTION
Frames: 13
Frame Time: 0.033333
-89.390661 74.688440 347.997806 21.335463 -3.012505 21.549041 0.783170 0.413474 -20.367480 -0.441363 0.148267 0.890752 -5.286176 24.242781 10.967023 0.000000 0.000000 0.000000 -9.643014 -10.339714 3.870601 0.071978 0.545237 -6.338556 -21.946536 -1.960947 3.583537 10.908442 17.265537 -0.058090 0.000000 0.000000 0.000000 0.000000 0.000000 0.000000 -10.192149 6.280587 -1.991417 -6.596804 -15.032213 1.250880 -24.050375 -23.526574 10.875245 36.286791 -3.992337 -19.787503 0.000000 0.000000 0.000000 0.000000 0.000000 0.000000 -19.825065 8.982360 -19.212193 25.578838 25.432378 5.846529 0.130113 11.549859 -40.032021 0.000000 0.000000 0.000000 -37.585036 6.106291 -19.005773 23.822588 17.860017 1.574801 -3.842728 -12.815876 -4.390702 0.000000 0.000000 0.000000
-91.060643 74.305431 350.974885 21.718896 -4.306915 21.935561 0.286225 0.539921 -20.462663 -0.249642 0.462446 0.842635 -1.654887 25.430897 10.479271 0.000000 0.000000 0.000000 -8.451190 -9.375161 4.199428 0.244654 1.369303 -7.007679 -22.091551 -8.501629 4.323722 11.669496 21.621724 -2.512640 0.000000 0.000000 0.000000 0.000000 0.000000 0.000000 -7.689378 9.169762 -2.123409 -11.916899 -17.565257 0.729411 -0.583602 -15.956201 9.886217 14.647234 -3.425242 -11.425966 0.000000 0.000000 0.000000 0.000000 0.000000 0.000000 -20.627877 12.391646 -19.445151 27.566991 25.035180 7.204017 -0.909099 14.511377 -43.084734 0.000000 0.000000 0.000000 -34.945429 10.859567 -17.202466 22.602597 12.909195 1.544650 -19.218505 -26.062315 4.671441 0.000000 0.000000 0.000000
-92.168286 73.885359 353.518910 22.321136 -5.512509 23.780712 -0.685923 0.803923 -21.969209 0.049112 0.831312 0.769983 2.250109 26.372159 9.804521 0.000000 0.000000 0.000000 -6.433955 -8.078014 4.578880 -1.317621 1.589360 -7.308235 23.422925 -0.380665 12.859789 -31.941799 20.605564 -7.993081 0.000000 0.000000 0.000000 0.000000 0.000000 0.000000 -4.674431 11.587768 -2.558720 -17.112927 -18.436542 -0.045420 23.944897 -11.726285 7.547875 -8.013246 -2.408869 -4.396185 0.000000 0.000000 0.000000 0.000000 0.000000 0.000000 -20.943591 17.412417 -21.090817 28.614406 23.223715 9.157949 -2.263016 19.145823 -46.131744 0.000000 0.000000 0.000000 -31.511988 15.082336 -17.639775 20.227153 9.084428 1.515606 -30.329613 -28.965066 9.699706 0.000000 0.000000 0.000000
-92.517315 73.599277 355.395431 23.209004 -6.103754 25.709914 -1.153402 1.306285 -23.723031 0.535217 1.124335 0.727209 4.926013 25.855402 9.102510 0.000000 0.000000 0.000000 -5.109101 -7.472342 4.966353 -3.836481 0.571154 -7.248532 49.778854 31.174410 -8.194917 -59.334626 -11.522548 -20.365750 0.000000 0.000000 0.000000 0.000000 0.000000 0.000000 -2.933501 13.026116 -2.949116 -22.910078 -18.515096 -1.091462 49.171864 -6.920665 2.197206 -29.520226 -7.267261 2.147332 0.000000 0.000000 0.000000 0.000000 0.000000 0.000000 -22.132363 22.077084 -22.949826 29.855608 21.798988 11.180243 -3.895587 24.363073 -48.969147 0.000000 0.000000 0.000000 -29.470010 18.340716 -18.668065 18.709733 6.130920 1.377151 -35.591128 -25.469540 12.493821 0.000000 0.000000 0.000000
-92.584296 73.532055 356.959489 24.554336 -6.206548 27.324288 -1.679525 1.779333 -25.205527 0.764413 1.187173 0.738127 6.873327 25.391348 8.628035 0.000000 0.000000 0.000000 -4.219320 -7.329173 5.362729 -5.605663 0.770687 -7.459802 72.581801 40.557651 -26.769777 -79.093881 -23.438268 -33.304353 0.000000 0.000000 0.000000 0.000000 0.000000 0.000000 -0.471119 14.393804 -3.587810 -28.869382 -18.263307 -2.322901 60.742201 -6.752399 1.154394 -36.024797 -7.014440 2.933356 0.000000 0.000000 0.000000 0.000000 0.000000 0.000000 -24.697759 25.266880 -24.293015 32.130370 22.467221 12.704217 -9.362580 25.773861 -48.234391 0.000000 0.000000 0.000000 -27.898156 20.915923 -19.777745 16.992094 3.441529 1.197356 -33.897393 -13.768062 12.510828 0.000000 0.000000 0.000000
-92.180893 73.770187 357.938515 26.045572 -6.022826 30.227485 -1.966913 2.356877 -28.065553 0.824342 1.113455 0.786076 7.794927 24.540517 8.322905 0.000000 0.000000 0.000000 -3.799690 -7.510695 5.722645 -9.233208 -0.638714 -6.805023 82.177473 41.714606 -35.060941 -84.415756 -25.595287 -37.099395 0.000000 0.000000 0.000000 0.000000 0.000000 0.000000 2.046592 15.014296 -4.338215 -33.329523 -17.069284 -3.260074 63.354360 -6.044328 0.899693 -34.726360 -6.691017 2.469010 0.000000 0.000000 0.000000 0.000000 0.000000 0.000000 -26.099762 30.442079 -27.126998 33.284704 21.468425 14.953389 -6.597298 21.897977 -47.578771 0.000000 0.000000 0.000000 -26.182743 23.093508 -22.565551 15.098638 1.603862 1.014427 -40.253091 -22.354467 15.986951 0.000000 0.000000 0.000000
-91.581935 73.914492 357.797719 27.049765 -4.604255 32.590758 -2.063427 2.114496 -30.645556 0.757781 0.845733 0.882735 7.419096 24.066844 8.571079 0.000000 0.000000 0.000000 -3.886299 -8.146996 6.029582 -10.708245 -0.580871 -6.732882 77.955697 42.117209 -33.014054 -77.071691 -25.483944 -33.895949 0.000000 0.000000 0.000000 0.000000 0.000000 0.000000 4.122350 14.850039 -4.899126 -35.950832 -15.456124 -3.896855 60.973626 -5.330729 1.291472 -31.492279 -5.971863 1.755484 0.000000 0.000000 0.000000 0.000000 0.000000 0.000000 -22.400771 33.607641 -30.886230 30.539861 17.126110 16.071107 -2.891959 19.727250 -47.041236 0.000000 0.000000 0.000000 -27.120773 22.601058 -25.317889 15.188059 2.290796 1.071642 -46.540028 -39.834752 17.127061 0.000000 0.000000 0.000000
-91.211595 74.307870 357.699552 28.157357 -3.249016 31.077418 -2.121337 2.026056 -29.431048 0.583601 0.550870 0.988917 6.149795 22.884121 8.842235 0.000000 0.000000 0.000000 -4.717725 -9.039570 6.166449 -8.527612 0.085496 -7.522975 70.087634 44.276464 -31.208387 -61.283874 -29.705162 -29.128528 0.000000 0.000000 0.000000 0.000000 0.000000 0.000000 5.727310 14.634526 -5.218717 -36.033668 -14.091465 -4.554234 52.600061 -6.584802 4.046810 -23.315180 -1.686496 -0.621984 0.000000 0.000000 0.000000 0.000000 0.000000 0.000000 -20.611455 33.605556 -30.266802 26.904353 13.223504 15.729349 6.349404 14.749222 -46.251293 0.000000 0.000000 0.000000 -29.635426 21.288140 -24.021391 15.578415 3.234023 1.200442 -49.062688 -63.733626 11.302603 0.000000 0.000000 0.000000
-90.680142 74.792061 357.536045 29.119034 -2.163289 30.673343 -1.945258 1.890694 -29.287664 0.231653 0.429494 1.044872 5.452138 21.632713 9.005023 0.000000 0.000000 0.000000 -5.685716 -10.174096 6.294119 -4.632581 3.285753 -9.089716 55.546914 46.229961 -25.132640 -42.136316 -32.296586 -21.186144 0.000000 0.000000 0.000000 0.000000 0.000000 0.000000 7.337710 14.189246 -5.502493 -33.646861 -11.506377 -5.097094 38.952470 -7.663289 6.136961 -9.208276 3.786701 -4.337278 0.000000 0.000000 0.000000 0.000000 0.000000 0.000000 -19.368039 36.745193 -31.282111 25.304518 7.718049 16.869673 23.691096 4.550685 -42.360689 0.000000 0.000000 0.000000 -31.064302 21.454116 -23.583038 15.261926 2.398767 1.062619 -44.708978 -67.979830 10.506943 0.000000 0.000000 0.000000
-90.950894 74.530304 357.102330 28.404129 -0.510463 30.340078 -1.601916 0.592171 -29.209685 -0.400741 -0.074283 1.137600 6.836225 21.387161 9.046749 0.000000 0.000000 0.000000 -5.455030 -10.507285 6.334469 -0.215772 8.184706 -11.285336 35.317739 42.971165 -13.149722 -26.947718 -28.266773 -13.774449 0.000000 0.000000 0.000000 0.000000 0.000000 0.000000 9.693040 14.297467 -5.836895 -29.853346 -9.001259 -5.691444 24.123880 -8.788607 6.859273 4.447904 8.358754 -7.388283 0.000000 0.000000 0.000000 0.000000 0.000000 0.000000 -15.696641 34.184077 -31.968201 21.222550 4.212500 14.922057 41.016270 -4.415530 -35.228619 0.000000 0.000000 0.000000 -31.393939 20.044377 -24.108419 15.077804 2.511480 1.023936 -37.176595 -65.108655 11.457074 0.000000 0.000000 0.000000
-91.384333 74.164462 356.579770 27.276454 0.945546 27.243784 -0.818676 -0.675421 -26.337041 -0.671994 -0.522096 1.227028 6.816891 21.042521 9.183024 0.000000 0.000000 0.000000 -6.104855 -12.047066 6.474773 6.166271 15.879605 -14.979034 17.223402 35.110520 -3.415691 -11.430417 -20.459708 -7.283840 0.000000 0.000000 0.000000 0.000000 0.000000 0.000000 11.979331 14.605724 -6.173865 -26.134167 -7.838501 -6.434301 10.869691 -11.330807 7.630855 14.491779 12.991455 -10.476100 0.000000 0.000000 0.000000 0.000000 0.000000 0.000000 -14.803827 29.456043 -28.598220 17.544825 2.221036 12.478826 64.155014 -14.634159 -19.172433 0.000000 0.000000 0.000000 -31.641978 17.955811 -21.952124 14.807088 1.556383 0.862678 -24.123725 -69.528688 12.828996 0.000000 0.000000 0.000000
-91.334436 73.887273 355.560064 26.841100 2.762143 25.734593 -0.698458 -1.686481 -25.065584 -0.764238 -0.668365 1.246601 6.716860 20.276605 9.513223 0.000000 0.000000 0.000000 -5.608072 -13.584453 6.968845 8.809210 22.373991 -17.908716 6.004324 26.827469 0.524906 -3.545073 -16.503084 -3.239889 0.000000 0.000000 0.000000 0.000000 0.000000 0.000000 13.092571 14.518172 -6.059844 -22.666356 -5.707710 -7.486057 0.811518 -15.365677 8.247597 21.389804 17.309090 -13.193763 0.000000 0.000000 0.000000 0.000000 0.000000 0.000000 -16.588780 27.737611 -27.583325 17.646593 0.087710 12.478015 73.186711 -16.525021 -12.790563 0.000000 0.000000 0.000000 -32.286782 14.957340 -21.817483 14.057127 2.362226 0.887204 -19.520357 -71.793995 14.090758 0.000000 0.000000 0.000000
-91.156046 73.591360 354.311285 26.420670 4.382243 25.115380 -0.745065 -2.276024 -24.708018 -0.840060 -0.739767 1.229322 6.190180 19.867726 10.113560 0.000000 0.000000 0.000000 -4.255712 -12.441543 6.908554 8.152633 25.339387 -18.566930 1.507065 20.261521 1.809153 -5.477135 -14.852852 -2.127474 0.000000 0.000000 0.000000 0.000000 0.000000 0.000000 13.467129 14.394777 -5.603393 -20.058454 -4.467683 -8.365567 -3.407133 -19.205733 9.256423 23.535845 19.438920 -14.947496 0.000000 0.000000 0.000000 0.000000 0.000000 0.000000 -19.776942 28.287701 -28.039990 20.751199 -2.214647 14.318328 73.365808 -15.231512 -16.304424 0.000000 0.000000 0.000000 -32.984688 11.677847 -22.667195 13.285416 4.075714 1.043174 -18.037728 -74.155036 15.209036 0.000000 0.000000 0.000000
